<svg xmlns="http://www.w3.org/2000/svg">
  <symbol id="home" viewBox="0 0 24 24"><path d="m3 11 9-8 9 8v9a1 1 0 0 1-1 1h-5v-7H9v7H4a1 1 0 0 1-1-1z"/></symbol>
  <symbol id="building" viewBox="0 0 24 24"><path d="M4 21V3h10v18M14 9h6v12M8 7h2M8 11h2M8 15h2M17 13h1M17 17h1M2 21h20"/></symbol>
  <symbol id="key" viewBox="0 0 24 24"><circle cx="8" cy="15" r="4"/><path d="m11 12 9-9m-3 3 3 3m-6 0 3 3"/></symbol>
  <symbol id="calendar" viewBox="0 0 24 24"><rect x="3" y="5" width="18" height="16" rx="2"/><path d="M16 3v4M8 3v4M3 10h18M8 14h.01M12 14h.01M16 14h.01M8 18h.01M12 18h.01"/></symbol>
  <symbol id="plan" viewBox="0 0 24 24"><path d="M3 6 9 3l6 3 6-3v15l-6 3-6-3-6 3zM9 3v15M15 6v15"/></symbol>
  <symbol id="sofa" viewBox="0 0 24 24"><path d="M5 12V8a3 3 0 0 1 3-3h8a3 3 0 0 1 3 3v4M3 13a2 2 0 0 1 4 0v3h10v-3a2 2 0 0 1 4 0v6H3zM6 19v2M18 19v2"/></symbol>
  <symbol id="tools" viewBox="0 0 24 24"><path d="m14.7 6.3 3-3a4 4 0 0 1-5 5l-8.5 8.5a2.1 2.1 0 0 0 3 3l8.5-8.5a4 4 0 0 0 5-5l-3 3z"/></symbol>
  <symbol id="shield" viewBox="0 0 24 24"><path d="M12 22s8-4 8-10V5l-8-3-8 3v7c0 6 8 10 8 10zM9 12l2 2 4-4"/></symbol>
  <symbol id="message" viewBox="0 0 24 24"><path d="M21 11.5a8.4 8.4 0 0 1-9 8.5 9.2 9.2 0 0 1-4-.9L3 21l1.8-4.7a8.4 8.4 0 1 1 16.2-4.8z"/><path d="M8.5 9.5c1 2.3 2.5 3.8 5 5"/></symbol>
</svg>
